<svg xmlns="http://www.w3.org/2000/svg" viewBox="0 0 50 50" width="50" height="50">
    <path d="M 11 2 C 6.055 2 2 6.055 2 11 L 2 39 C 2 43.945 6.055 48 11 48 L 39 48 C 43.945 48 48 43.945 48 39 L 48 11 C 48 6.055 43.945 2 39 2 L 11 2 z M 25.005859 8.1230469 C 34.926859 8.1230469 43 14.595781 43 22.550781 C 43 25.733781 41.750625 28.601781 39.140625 31.425781 L 39.142578 31.425781 C 35.367578 35.719781 26.924906 40.947094 25.003906 41.746094 C 23.264906 42.483094 23.367312 41.236109 23.445312 40.787109 C 23.492313 40.520109 23.703125 39.265625 23.703125 39.265625 C 23.763125 38.811625 23.826531 38.107203 23.644531 37.658203 C 23.442531 37.164203 22.645594 36.908203 22.058594 36.783203 C 13.410594 35.653203 7.0097656 29.679828 7.0097656 22.548828 C 7.0097656 14.594828 15.084859 8.1230469 25.005859 8.1230469 z M 23.992188 18.998047 C 23.488379 19.007393 23 19.391875 23 20 L 23 27 C 23 27.552 23.448 28 24 28 C 24.552 28 25 27.552 25 27 L 25 23.121094 L 28.185547 27.580078 C 28.751547 28.372078 30 27.973 30 27 L 30 20 C 30 19.448 29.552 19 29 19 C 28.448 19 28 19.448 28 20 L 28 23.878906 L 24.814453 19.419922 C 24.602203 19.122922 24.294473 18.992439 23.992188 18.998047 z M 14 19 C 13.448 19 13 19.448 13 20 L 13 27 C 13 27.552 13.448 28 14 28 L 18 28 C 18.552 28 19 27.552 19 27 C 19 26.448 18.552 26 18 26 L 15 26 L 15 20 C 15 19.448 14.552 19 14 19 z M 21 19 C 20.448 19 20 19.448 20 20 L 20 27 C 20 27.552 20.448 28 21 28 C 21.552 28 22 27.552 22 27 L 22 20 C 22 19.448 21.552 19 21 19 z M 32 19 C 31.448 19 31 19.448 31 20 L 31 27 C 31 27.552 31.448 28 32 28 L 36 28 C 36.552 28 37 27.552 37 27 C 37 26.448 36.552 26 36 26 L 33 26 L 33 24 L 36 24 C 36.553 24 37 23.552 37 23 C 37 22.448 36.553 22 36 22 L 33 22 L 33 21 L 36 21 C 36.552 21 37 20.552 37 20 C 37 19.448 36.552 19 36 19 L 32 19 z"/>
</svg>